<svg width="12" height="12" fill="none" xmlns="http://www.w3.org/2000/svg"><g clip-path="url(#clip0_2368_242)"><path d="M4.432 3.112a.817.817 0 00.24-.58.816.816 0 00-.24-.582L2.722.24a.819.819 0 00-1.162 0L.855.945A2.931 2.931 0 00.12 3.842C.649 5.658 1.7 7.388 3.156 8.844s3.186 2.506 5.002 3.037a2.93 2.93 0 002.897-.736l.705-.705a.822.822 0 000-1.162l-1.71-1.71a.842.842 0 00-1.162 0l-.769.768a1.435 1.435 0 01-2.026 0l-2.43-2.43a1.423 1.423 0 01-.419-1.013c0-.383.15-.742.42-1.012l.768-.769z" fill="#BABABA"/></g><defs><clipPath id="clip0_2368_242"><path fill="#fff" d="M0 0h12v12H0z"/></clipPath></defs></svg>