<svg width="40" height="40" fill="none" xmlns="http://www.w3.org/2000/svg"><circle cx="20" cy="20" r="20" fill="#1A1A1A"/><path fill-rule="evenodd" clip-rule="evenodd" d="M12.446 13.84l5.41 5.407a3.046 3.046 0 004.289 0l5.41-5.407a.123.123 0 00-.017-.188 3.396 3.396 0 00-1.947-.613H14.41c-.724 0-1.395.228-1.947.613a.123.123 0 00-.016.188zM11 16.445c0-.568.141-1.105.39-1.577a.123.123 0 01.196-.03l5.34 5.337a4.354 4.354 0 006.147 0l5.341-5.337a.123.123 0 01.197.03c.248.472.389 1.009.389 1.577v7.11a3.41 3.41 0 01-3.409 3.406H14.41A3.41 3.41 0 0111 23.555v-7.11z" fill="#fff"/></svg>