<svg width="20" height="20" fill="none" xmlns="http://www.w3.org/2000/svg"><g clip-path="url(#clip0_2458_1624)" fill="#4C4C4C"><path d="M11.914 10a1.914 1.914 0 11-3.828 0 1.914 1.914 0 013.828 0z"/><path d="M14.476 6.614a1.78 1.78 0 00-.43-.66 1.778 1.778 0 00-.66-.43c-.202-.078-.506-.172-1.066-.197-.605-.028-.787-.034-2.32-.034s-1.715.006-2.32.033c-.56.026-.864.12-1.066.198a1.76 1.76 0 00-.66.43 1.78 1.78 0 00-.43.66c-.079.202-.172.506-.198 1.066-.028.606-.034.787-.034 2.32 0 1.534.006 1.715.034 2.321.026.56.12.864.198 1.066.092.25.238.475.43.66.184.191.41.338.66.43.202.079.506.172 1.066.198.605.027.787.033 2.32.033 1.534 0 1.715-.006 2.32-.033.56-.026.864-.12 1.067-.198.5-.193.896-.59 1.09-1.09.078-.202.172-.506.197-1.066.028-.606.034-.787.034-2.32 0-1.534-.006-1.715-.034-2.32-.025-.56-.119-.865-.198-1.067zM10 12.949a2.949 2.949 0 110-5.897 2.949 2.949 0 010 5.897zm3.065-5.325a.69.69 0 110-1.378.69.69 0 010 1.378z"/><path d="M10 0C4.478 0 0 4.478 0 10s4.478 10 10 10 10-4.478 10-10S15.522 0 10 0zm5.708 12.367c-.028.612-.125 1.029-.267 1.394a2.936 2.936 0 01-1.68 1.68c-.365.142-.782.239-1.393.267-.613.027-.808.034-2.368.034-1.56 0-1.755-.007-2.367-.034-.612-.028-1.029-.125-1.394-.267a2.813 2.813 0 01-1.017-.663 2.815 2.815 0 01-.663-1.017c-.141-.365-.239-.782-.266-1.393-.029-.613-.035-.809-.035-2.368 0-1.56.006-1.755.034-2.367.028-.612.125-1.029.267-1.394.144-.383.37-.73.663-1.017a2.812 2.812 0 011.017-.663c.365-.142.782-.239 1.394-.267.612-.027.808-.034 2.367-.034 1.56 0 1.755.007 2.367.035.612.027 1.029.124 1.394.266.383.144.73.37 1.017.663.292.287.519.634.663 1.017.142.365.239.782.267 1.394.028.612.034.808.034 2.367 0 1.56-.006 1.755-.034 2.367z"/></g><defs><clipPath id="clip0_2458_1624"><path fill="#fff" d="M0 0h20v20H0z"/></clipPath></defs></svg>