<svg width="30" height="30" fill="none" xmlns="http://www.w3.org/2000/svg"><g clip-path="url(#clip0_2458_353)"><path d="M15 0C6.717 0 0 6.717 0 15c0 8.283 6.717 15 15 15 8.283 0 15-6.717 15-15 0-8.283-6.717-15-15-15zm-4.359 22.676H6.988v-10.99h3.653v10.99zM8.815 10.184H8.79c-1.226 0-2.019-.844-2.019-1.898 0-1.079.817-1.9 2.067-1.9 1.25 0 2.019.821 2.043 1.9 0 1.054-.793 1.898-2.067 1.898zm14.999 12.492H20.16v-5.88c0-1.478-.529-2.485-1.85-2.485-1.01 0-1.61.68-1.875 1.336-.097.234-.12.563-.12.891v6.138h-3.653s.048-9.96 0-10.99h3.653v1.555c.485-.749 1.354-1.814 3.292-1.814 2.404 0 4.206 1.571 4.206 4.947v6.302z" fill="#BABABA"/></g><defs><clipPath id="clip0_2458_353"><path fill="#fff" d="M0 0h30v30H0z"/></clipPath></defs></svg>