<svg width="140" height="36" fill="none" xmlns="http://www.w3.org/2000/svg"><path d="M17 21.458V2.848C17 1.707 17.55 1 18.394 1h.416c.871 0 1.233.375 1.689 1.18l8.525 14.709V2.542c0-1 .416-1.542 1.3-1.542h.39C31.557 1 32 1.542 32 2.542v18.61C32 22.334 31.49 23 30.646 23h-.295c-.844 0-1.166-.306-1.555-1l-8.82-15.222v14.68c0 1-.456 1.542-1.354 1.542h-.335C17.416 23 17 22.458 17 21.458zm23.878-17.59H36.5c-.973 0-1.5-.453-1.5-1.36v-.16C35 1.44 35.527 1 36.5 1h12c.973 0 1.5.44 1.5 1.348v.16c0 .907-.527 1.36-1.5 1.36h-4.378V20.52c0 .934-.5 1.481-1.446 1.481h-.46c-.878 0-1.338-.547-1.338-1.48V3.867z" fill="#1A1A1A"/><path fill-rule="evenodd" clip-rule="evenodd" d="M53 20.386V2.8c0-1.093.627-1.8 1.717-1.8h5.206c4.457 0 6.828 2.161 6.828 6.217 0 3.296-1.676 5.297-4.674 5.884l-.9.12 5.806 7.592c.136.16-.559 1.187-1.949 1.187-.886 0-1.376-.414-1.908-1.227l-5.247-7.258H56.23v7.03c0 .881-.45 1.455-1.377 1.455h-.49c-.9 0-1.363-.547-1.363-1.614zm6.596-9.06c2.672 0 3.885-1.494 3.885-3.882 0-2.615-1.282-3.896-3.953-3.896h-3.325v7.779h3.393z" fill="#1A1A1A"/><path d="M84.99 21.925L78.834 2.04c-.205-.638-.725-1.04-2.38-1.04-1.588 0-2.218.402-2.382 1.04L68.01 21.925c-.096.235.561.998 1.656 1.067.766.07 1.45-.332 1.751-1.511l.958-3.065 1.273-4.645h-.014l.534-1.872 2.217-7.918 2.873 9.79h-.013l1.313 4.645.958 3.037c.329 1.137.985 1.609 1.779 1.54 1.136-.07 1.793-.805 1.697-1.068zm3.01-.467V2.848C88 1.707 88.55 1 89.394 1h.416c.871 0 1.233.375 1.689 1.18l8.525 14.709V2.542c0-1 .416-1.542 1.3-1.542h.389c.845 0 1.287.542 1.287 1.542v18.61c0 1.181-.509 1.848-1.354 1.848h-.295c-.844 0-1.166-.306-1.555-1l-8.82-15.222v14.68c0 1-.456 1.542-1.354 1.542h-.335C88.415 23 88 22.458 88 21.458zM116.027 1c2.604 0 4.465.952 5.567 2.04.8.788 1.268 1.672 1.268 2.501 0 1.836-1.971 2.04-2.108 1.904-.8-2.176-2.426-3.59-4.755-3.59-3.404 0-5.499 3.06-5.499 8.2 0 5.058 2.123 8.049 5.527 8.049 2.604 0 4.038-1.713 4.699-3.943.028-.164 2.274-.164 2.274 1.74 0 .857-.51 2.04-1.433 2.964-1.144 1.183-3.073 2.135-5.637 2.135-5.54 0-8.93-4.433-8.93-10.878C107 5.57 110.459 1 116.027 1z" fill="#1A1A1A"/><path d="M74 23l2.943-10L80 23h-6zm6 2l-2.943 10L74 25h6zm-67.521-5H1.535C.521 20 0 20.414 0 21.314v.243C0 22.486.521 23 1.535 23H12.48c1.013 0 1.52-.514 1.52-1.443v-.243c0-.9-.507-1.314-1.521-1.314zM9.54 10H3.473C2.447 10 2 10.447 2 11.356v.216C2 12.54 2.487 13 3.474 13h6.065c.987 0 1.461-.461 1.461-1.428v-.216C11 10.447 10.566 10 9.54 10zm2.939-9H1.535C.521 1 0 1.414 0 2.314v.229C0 3.486.521 4 1.535 4H12.48C13.493 4 14 3.486 14 2.543v-.229C14 1.414 13.493 1 12.479 1zm125.986 19h-10.944c-1.014 0-1.521.414-1.521 1.314v.243c0 .929.507 1.443 1.521 1.443h10.944c1.014 0 1.535-.514 1.535-1.443v-.243c0-.9-.521-1.314-1.535-1.314zm-2.939-10h-6.065c-1.027 0-1.461.447-1.461 1.356v.216c0 .967.474 1.428 1.461 1.428h6.065c.987 0 1.474-.461 1.474-1.428v-.216c0-.909-.447-1.356-1.474-1.356zm2.939-9h-10.944C126.507 1 126 1.414 126 2.314v.229c0 .943.507 1.457 1.521 1.457h10.944C139.479 4 140 3.486 140 2.543v-.229c0-.9-.521-1.314-1.535-1.314zM83 27.544c0-.358.162-.544.444-.544h.35c.27 0 .405.1.486.387l.713 2.12.728-2.12c.094-.315.215-.387.444-.387h.364c.296 0 .471.186.471.544V31.5c0 .33-.108.501-.404.501h-.135c-.27 0-.39-.172-.39-.501v-1.09l.067-2.077-.714 2.207c-.054.2-.08.343-.43.343s-.364-.143-.418-.343l-.727-2.207.067 2.078V31.5c0 .33-.094.501-.39.501h-.135c-.27 0-.391-.172-.391-.501v-3.955zm6 3.847v-3.768c0-.391.188-.623.511-.623h1.991c.31 0 .458.145.458.435v.058c0 .304-.148.434-.458.434h-1.506V29h1.008c.337 0 .471.13.471.406v.072c0 .29-.134.435-.47.435h-1.01v1.145h1.534c.323 0 .471.13.471.42v.058c0 .305-.148.464-.47.464h-2.02c-.323 0-.511-.217-.511-.609zm5 0v-3.768c0-.391.188-.623.525-.623h1.977c.31 0 .458.145.458.435v.058c0 .304-.148.434-.458.434h-1.506V29h1.008c.35 0 .471.13.471.406v.072c0 .29-.134.435-.47.435h-1.01v1.145h1.534c.323 0 .471.13.471.42v.058c0 .305-.148.464-.47.464h-2.005c-.337 0-.525-.217-.525-.609zm5.044-3.397h-.631c-.28 0-.413-.158-.413-.475v-.058c0-.302.134-.461.413-.461h2.162c.283 0 .425.154.425.461v.058c0 .317-.134.475-.425.475h-.62v3.502c0 .331-.133.504-.4.504h-.134c-.255 0-.377-.173-.377-.504v-3.502zm3.956-.493c0-.33.158-.501.434-.501h.132c.276 0 .434.172.434.501V31.5c0 .33-.158.501-.434.501h-.132c-.276 0-.434-.172-.434-.501v-4zm3 3.998v-3.955c0-.358.142-.544.354-.544h.095c.201 0 .295.086.39.315l1.346 2.765v-2.579c0-.33.13-.501.354-.501h.107c.224 0 .354.172.354.501v3.955c0 .358-.142.544-.354.544h-.071c-.213 0-.295-.086-.378-.272l-1.382-2.794V31.5c0 .33-.142.501-.378.501h-.071c-.236 0-.366-.172-.366-.501zm9-1.719v2.066c0 .028-.175.098-.378.098-.218 0-.393-.084-.495-.436a2.176 2.176 0 01-.058-.379c-.16.52-.567.871-1.222.871-1.12 0-1.847-1.053-1.847-2.486 0-1.475.8-2.514 2.182-2.514.494 0 .931.126 1.222.365.247.183.378.436.378.66 0 .59-.684.618-.786.576-.145-.463-.421-.716-.829-.716-.611 0-1.003.52-1.003 1.657 0 1.096.363 1.615.989 1.615.451 0 .771-.28.843-.758a1.98 1.98 0 00.029-.31h-.523c-.306 0-.48-.07-.48-.378v-.056c0-.296.16-.38.509-.38h1.091c.305 0 .378.183.378.506z" fill="#1A1A1A"/><path fill-rule="evenodd" clip-rule="evenodd" d="M117 31.377v-3.754c0-.391.173-.623.481-.623h1.136c.778 0 1.247.45 1.247 1.275 0 .566-.222.913-.629 1.058.518.174.765.638.765 1.247 0 .97-.481 1.42-1.481 1.42h-1.038c-.308 0-.481-.232-.481-.623zm1.407-2.232c.346 0 .531-.246.531-.696 0-.434-.173-.666-.518-.666h-.506v1.362h.493zm.074 2.072c.408 0 .593-.217.593-.753 0-.479-.185-.696-.605-.696h-.543v1.45h.555zm3.519-1.71c0-1.606.769-2.507 2-2.507 1.245 0 2 .887 2 2.493 0 1.606-.755 2.507-2 2.507-1.231 0-2-.901-2-2.493zm2.895 0c0-1.183-.336-1.606-.895-1.606-.559 0-.895.423-.895 1.592 0 1.183.35 1.606.895 1.606.559 0 .895-.423.895-1.592z" fill="#1A1A1A"/><path d="M128.222 29.486l-1.217-2.102c-.015-.057.203-.37.655-.37.39 0 .531.213.608.483l.733 1.492.733-1.492c.094-.284.234-.497.593-.497.437 0 .686.313.655.384l-1.185 2.116 1.201 2.116c.031.072-.234.37-.655.37-.344 0-.484-.2-.593-.512l-.764-1.434-.749 1.434c-.109.299-.234.526-.608.526-.405 0-.67-.313-.624-.37l1.217-2.144zM132 31.391v-3.768c0-.391.175-.623.511-.623h1.978c.323 0 .471.145.471.435v.058c0 .304-.148.434-.471.434h-1.493V29h1.008c.337 0 .471.13.471.406v.072c0 .29-.134.435-.471.435h-1.008v1.145h1.533c.323 0 .471.13.471.42v.058c0 .305-.148.464-.471.464h-2.018c-.336 0-.511-.217-.511-.609zm5 .108v-3.955c0-.358.142-.544.354-.544h.083c.213 0 .307.086.402.315l1.346 2.765v-2.579c0-.33.13-.501.354-.501h.095c.236 0 .366.172.366.501v3.955c0 .358-.142.544-.354.544h-.071c-.213 0-.295-.086-.378-.272l-1.382-2.794V31.5c0 .33-.142.501-.378.501h-.071c-.236 0-.366-.172-.366-.501z" fill="#1A1A1A"/></svg>