<svg width="12" height="12" fill="none" xmlns="http://www.w3.org/2000/svg"><path fill-rule="evenodd" clip-rule="evenodd" d="M.964 1.893L4.57 5.498a2.03 2.03 0 002.86 0l3.606-3.605a.082.082 0 00-.01-.125 2.263 2.263 0 00-1.298-.409H2.272c-.482 0-.93.152-1.297.409a.082.082 0 00-.011.125zM0 3.63c0-.379.094-.737.26-1.051a.082.082 0 01.13-.02l3.561 3.558a2.903 2.903 0 004.098 0l3.56-3.558c.04-.04.106-.03.131.02.166.314.26.672.26 1.051v4.74c0 1.253-1.02 2.27-2.272 2.27H2.272A2.274 2.274 0 010 8.37V3.63z" fill="#BABABA"/></svg>