<svg width="260" height="104" fill="none" xmlns="http://www.w3.org/2000/svg"><g clip-path="url(#clip0_2187_7507)"><path d="M125.1 81s-.1-.2-.1-.3a94.876 94.876 0 01-1.1-3.3c-2.5.7-5.2 1.1-8 1.1C99 78.5 85.4 64.8 85.4 48c0-16.9 13.6-30.5 30.5-30.6 9.9 0 18.7 4.8 24.3 12.1 4.7-3.6 10.2-6.3 16.2-7.8C147.8 8.4 132.9-.4 115.9-.4 89.2-.4 67.6 21.3 67.6 48s21.6 48.3 48.3 48.3c5.7 0 11.1-1 16.2-2.8-2-2.467-3.7-5.134-5.1-8a37.72 37.72 0 01-1.9-4.5z" fill="#8DC63F"/><path fill-rule="evenodd" clip-rule="evenodd" d="M56.3 64.5c-.1 16-12.2 26.4-27.8 26.5-1.2 0-4-.4-5.1-.6-1.9-.3-6.7-1.3-10.1-3.1l-1-.5V104H0V64.5C0 48.3 12.4 38 28.1 37.9c15.8.1 28.1 10.4 28.2 26.6zM20.9 77.3c2 1 4.3 1.6 6.9 1.6 8.6 0 13.9-6 13.9-14.3.1-8.1-5.1-14-13.4-14.2-8.6 0-14 6-14 14.4 0 5.6 2.4 10.1 6.6 12.5z" fill="#4C4C4E"/><path d="M241.3 38.1v.1c-7.7-.1-12.8 4.2-14.8 8l-.4.6h-2v-7.3h-13.8v51.8h14.4V65.5c0-3.6.3-7.2 1.9-10.1 1.6-2.9 4.6-4.9 9.3-4.8h.2c4.6 0 7.3 2.4 8.4 5.5 1.3 3.1 1.2 6.7 1.3 9.9v25.3h14.4V62.6c-.2-14.5-2.7-24.3-18.9-24.5z" fill="#4C4C4E"/><path fill-rule="evenodd" clip-rule="evenodd" d="M195.8 64.7c-.1 16.2-12.5 26.5-28.3 26.6-15.8-.1-28.2-10.4-28.2-26.6 0-16.3 12.4-26.6 28.2-26.6 15.8 0 28.2 10.3 28.2 26.6h.1zm-28.2 14.5c8.7 0 14.2-6.1 14.2-14.5 0-8.5-5.5-14.5-14.2-14.5s-14.2 6-14.2 14.5c0 8.4 5.5 14.5 14.2 14.5z" fill="#4C4C4E"/></g><defs><clipPath id="clip0_2187_7507"><path fill="#fff" d="M0 0h260v104H0z"/></clipPath></defs></svg>