<svg width="40" height="40" fill="none" xmlns="http://www.w3.org/2000/svg"><circle cx="20" cy="20" r="20" fill="#1A1A1A"/><g clip-path="url(#clip0_2187_5348)"><path d="M17.648 15.668c.233-.233.361-.542.361-.871 0-.33-.128-.639-.36-.871l-2.566-2.566a1.233 1.233 0 00-1.743 0l-1.057 1.058a4.397 4.397 0 00-1.105 4.345c.797 2.724 2.372 5.319 4.556 7.503s4.778 3.76 7.503 4.556a4.395 4.395 0 004.345-1.105l1.058-1.058c.48-.48.48-1.262 0-1.742l-2.566-2.566c-.466-.465-1.277-.465-1.742 0l-1.153 1.153a2.152 2.152 0 01-3.04 0l-3.643-3.644a2.135 2.135 0 01-.63-1.52c0-.574.224-1.114.63-1.52l1.152-1.152z" fill="#fff"/></g><defs><clipPath id="clip0_2187_5348"><path fill="#fff" transform="translate(11 11)" d="M0 0h18v18H0z"/></clipPath></defs></svg>