<svg width="12" height="12" viewBox="0 0 12 12" fill="none" xmlns="http://www.w3.org/2000/svg">
<g clip-path="url(#clip0_2368_242)">
<path d="M4.4323 3.11214C4.58731 2.9569 4.67286 2.75073 4.67286 2.53117C4.67286 2.3116 4.58731 2.10566 4.4323 1.95042L2.72199 0.240117C2.56184 0.0799646 2.35143 0 2.14125 0C1.93106 0 1.72043 0.0799646 1.56027 0.240117L0.855113 0.945279C0.0994704 1.70114 -0.182639 2.81104 0.11868 3.84187C0.649841 5.65827 1.7001 7.38778 3.15599 8.8439C4.61188 10.3 6.34162 11.35 8.15802 11.8812C9.18884 12.183 10.2987 11.9004 11.0546 11.1448L11.7598 10.4396C12.0801 10.1193 12.0801 9.5982 11.7598 9.27789L10.0495 7.56759C9.73899 7.25734 9.19823 7.25756 8.88775 7.56759L8.11938 8.33597C7.56096 8.89438 6.65187 8.8946 6.09301 8.33597L3.66392 5.90688C3.39298 5.63593 3.244 5.27587 3.24422 4.8928C3.24422 4.5104 3.39343 4.15078 3.66392 3.88051L4.4323 3.11214Z" fill="#BABABA"/>
</g>
<defs>
<clipPath id="clip0_2368_242">
<rect width="12" height="12" fill="white"/>
</clipPath>
</defs>
</svg>
