<svg width="40" height="40" viewBox="0 0 40 40" fill="none" xmlns="http://www.w3.org/2000/svg">
<circle cx="20" cy="20" r="20" fill="#1A1A1A"/>
<path fill-rule="evenodd" clip-rule="evenodd" d="M12.4457 13.8396L17.8553 19.2475C19.0352 20.4242 20.9638 20.4252 22.1447 19.2475L27.5543 13.8396C27.6088 13.7852 27.6009 13.6956 27.5377 13.6515C26.9859 13.267 26.3146 13.0391 25.5914 13.0391H14.4086C13.6854 13.0391 13.0141 13.2671 12.4623 13.6515C12.3991 13.6956 12.3912 13.7852 12.4457 13.8396ZM11 16.445C11 15.8767 11.141 15.3399 11.3893 14.868C11.4282 14.7942 11.5266 14.7792 11.5856 14.8382L16.9268 20.1753C18.6182 21.8678 21.3808 21.8688 23.0732 20.1753L28.4144 14.8382C28.4734 14.7792 28.5718 14.7942 28.6107 14.868C28.859 15.3399 29 15.8768 29 16.445V23.555C29 25.4344 27.47 26.9609 25.5914 26.9609H14.4086C12.53 26.9609 11 25.4344 11 23.555V16.445Z" fill="white"/>
</svg>
