<svg width="30" height="30" viewBox="0 0 30 30" fill="none" xmlns="http://www.w3.org/2000/svg">
<g clip-path="url(#clip0_2187_5364)">
<path d="M15 0C6.72903 0 0 6.72903 0 15C0 23.2704 6.72903 30 15 30C23.2704 30 30 23.2704 30 15C30 6.72903 23.2716 0 15 0ZM18.7304 15.5281H16.29V24.2262H12.6738C12.6738 24.2262 12.6738 19.4735 12.6738 15.5281H10.9548V12.4539H12.6738V10.4654C12.6738 9.04133 13.3505 6.81604 16.3232 6.81604L19.0029 6.82631V9.81048C19.0029 9.81048 17.3745 9.81048 17.0579 9.81048C16.7413 9.81048 16.2912 9.96878 16.2912 10.6479V12.4545H19.0464L18.7304 15.5281Z" fill="#1A1A1A"/>
</g>
<defs>
<clipPath id="clip0_2187_5364">
<rect width="30" height="30" fill="white"/>
</clipPath>
</defs>
</svg>
