<svg width="40" height="40" viewBox="0 0 40 40" fill="none" xmlns="http://www.w3.org/2000/svg">
<circle cx="20" cy="20" r="20" fill="#1A1A1A"/>
<path d="M24.6931 12.6775C23.8443 11.9825 22.8518 11.4846 21.7873 11.2196C20.7227 10.9546 19.6126 10.9291 18.5371 11.1451C17.1541 11.4286 15.8818 12.1037 14.8717 13.0899C13.8616 14.0761 13.1563 15.332 12.8398 16.7077C12.5233 18.0835 12.6089 19.5213 13.0865 20.8498C13.5641 22.1782 14.4135 23.3414 15.5335 24.2008C16.8123 25.1367 17.901 26.3077 18.7416 27.6511L19.3143 28.6034C19.3871 28.7244 19.4899 28.8245 19.6127 28.894C19.7356 28.9635 19.8744 29 20.0155 29C20.1567 29 20.2954 28.9635 20.4183 28.894C20.5412 28.8245 20.644 28.7244 20.7167 28.6034L21.2657 27.6887C21.9977 26.402 22.9957 25.2863 24.1932 24.416C25.1321 23.77 25.9081 22.9146 26.4599 21.9174C27.0117 20.9201 27.3242 19.8083 27.3727 18.6696C27.4213 17.5309 27.2046 16.3965 26.7397 15.3559C26.2748 14.3153 25.5744 13.397 24.6939 12.6734L24.6931 12.6775ZM20.0147 21.6374C19.3674 21.6374 18.7347 21.4455 18.1965 21.0859C17.6583 20.7263 17.2388 20.2151 16.9911 19.6171C16.7434 19.0191 16.6786 18.3611 16.8048 17.7262C16.9311 17.0914 17.2428 16.5082 17.7005 16.0505C18.1582 15.5928 18.7414 15.2811 19.3762 15.1549C20.0111 15.0286 20.6691 15.0934 21.2671 15.3411C21.8651 15.5888 22.3763 16.0083 22.7359 16.5465C23.0955 17.0847 23.2874 17.7174 23.2874 18.3647C23.2874 19.2327 22.9426 20.0651 22.3289 20.6789C21.7151 21.2926 20.8827 21.6374 20.0147 21.6374Z" fill="white"/>
</svg>
