<svg width="140" height="36" viewBox="0 0 140 36" fill="none" xmlns="http://www.w3.org/2000/svg">
<path d="M17 21.4583V2.84722C17 1.70833 17.5496 1 18.3941 1H18.8097C19.681 1 20.0429 1.375 20.4987 2.18056L29.0241 16.8889V2.54167C29.0241 1.54167 29.4397 1 30.3244 1H30.7131C31.5576 1 32 1.54167 32 2.54167V21.1528C32 22.3333 31.4906 23 30.6461 23H30.3512C29.5067 23 29.185 22.6944 28.7962 22L19.9759 6.77778V21.4583C19.9759 22.4583 19.5201 23 18.622 23H18.2869C17.4156 23 17 22.4583 17 21.4583Z" fill="#1A1A1A"/>
<path d="M40.8784 3.86849H36.5C35.527 3.86849 35 3.41487 35 2.50762V2.34752C35 1.44028 35.527 1 36.5 1H48.5C49.473 1 50 1.44028 50 2.34752V2.50762C50 3.41487 49.473 3.86849 48.5 3.86849H44.1216V20.5191C44.1216 21.453 43.6216 22 42.6757 22H42.2162C41.3378 22 40.8784 21.453 40.8784 20.5191V3.86849Z" fill="#1A1A1A"/>
<path fill-rule="evenodd" clip-rule="evenodd" d="M53 20.3856V2.80114C53 1.70712 53.6269 1 54.7172 1H59.9234C64.3801 1 66.7515 3.16137 66.7515 7.21728C66.7515 10.5127 65.0751 12.514 62.0768 13.101L61.1773 13.2211L66.9832 20.8126C67.1195 20.9727 66.4244 22 65.0342 22C64.1484 22 63.6577 21.5864 63.1262 20.7726L57.8791 13.5146H56.23V20.5457C56.23 21.4263 55.7803 22 54.8535 22H54.3629C53.4634 22 53 21.453 53 20.3856ZM59.5963 11.3266C62.2676 11.3266 63.4806 9.83228 63.4806 7.44409C63.4806 4.8291 62.1995 3.54828 59.5282 3.54828H56.2028V11.3266H59.5963Z" fill="#1A1A1A"/>
<path d="M84.9908 21.9247L78.8331 2.04C78.6278 1.40213 78.1079 1 76.4521 1C74.8648 1 74.2353 1.40213 74.0711 2.04L68.0092 21.9247C67.9134 22.1605 68.5703 22.9231 69.665 22.9925C70.4313 23.0618 71.1154 22.6597 71.4165 21.481L72.3744 18.4165L73.6469 13.7712H73.6333L74.1669 11.8992L76.3837 3.98132L79.2573 13.7712H79.2436L80.5572 18.4165L81.5151 21.4533C81.8435 22.5903 82.5003 23.0618 83.294 22.9925C84.4298 22.9231 85.0866 22.1882 84.9908 21.9247Z" fill="#1A1A1A"/>
<path d="M88 21.4583V2.84722C88 1.70833 88.5496 1 89.3941 1H89.8097C90.681 1 91.0429 1.375 91.4987 2.18056L100.024 16.8889V2.54167C100.024 1.54167 100.44 1 101.324 1H101.713C102.558 1 103 1.54167 103 2.54167V21.1528C103 22.3333 102.491 23 101.646 23H101.351C100.507 23 100.185 22.6944 99.7963 22L90.9759 6.77778V21.4583C90.9759 22.4583 90.5201 23 89.622 23H89.2869C88.4155 23 88 22.4583 88 21.4583Z" fill="#1A1A1A"/>
<path d="M116.027 1C118.631 1 120.492 1.95179 121.594 3.03956C122.394 3.82818 122.862 4.71199 122.862 5.54141C122.862 7.37701 120.891 7.58096 120.754 7.44499C119.954 5.26947 118.328 3.85538 115.999 3.85538C112.595 3.85538 110.5 6.91471 110.5 12.0544C110.5 17.1125 112.623 20.1038 116.027 20.1038C118.631 20.1038 120.065 18.3906 120.726 16.1607C120.754 15.9975 123 15.9975 123 17.9011C123 18.7577 122.49 19.9407 121.567 20.8653C120.423 22.0482 118.494 23 115.93 23C110.39 23 107 18.5674 107 12.1224C107 5.5686 110.459 1 116.027 1Z" fill="#1A1A1A"/>
<path d="M74 23L76.9434 13L80 23H74Z" fill="#1A1A1A"/>
<path d="M80 25L77.0566 35L74 25H80Z" fill="#1A1A1A"/>
<path d="M12.4789 20H1.53521C0.521127 20 0 20.4143 0 21.3143V21.5571C0 22.4857 0.521127 23 1.53521 23H12.4789C13.493 23 14 22.4857 14 21.5571V21.3143C14 20.4143 13.493 20 12.4789 20Z" fill="#1A1A1A"/>
<path d="M9.53947 10H3.47368C2.44737 10 2 10.4471 2 11.3558V11.5721C2 12.5385 2.48684 13 3.47368 13H9.53947C10.5263 13 11 12.5385 11 11.5721V11.3558C11 10.4471 10.5658 10 9.53947 10Z" fill="#1A1A1A"/>
<path d="M12.4789 1H1.53521C0.521127 1 0 1.41429 0 2.31429V2.54286C0 3.48571 0.521127 4 1.53521 4H12.4789C13.493 4 14 3.48571 14 2.54286V2.31429C14 1.41429 13.493 1 12.4789 1Z" fill="#1A1A1A"/>
<path d="M138.465 20H127.521C126.507 20 126 20.4143 126 21.3143V21.5571C126 22.4857 126.507 23 127.521 23H138.465C139.479 23 140 22.4857 140 21.5571V21.3143C140 20.4143 139.479 20 138.465 20Z" fill="#1A1A1A"/>
<path d="M135.526 10H129.461C128.434 10 128 10.4471 128 11.3558V11.5721C128 12.5385 128.474 13 129.461 13H135.526C136.513 13 137 12.5385 137 11.5721V11.3558C137 10.4471 136.553 10 135.526 10Z" fill="#1A1A1A"/>
<path d="M138.465 1H127.521C126.507 1 126 1.41429 126 2.31429V2.54286C126 3.48571 126.507 4 127.521 4H138.465C139.479 4 140 3.48571 140 2.54286V2.31429C140 1.41429 139.479 1 138.465 1Z" fill="#1A1A1A"/>
<path d="M83 27.5444C83 27.1862 83.1616 27 83.4444 27H83.7946C84.064 27 84.1987 27.1003 84.2795 27.3868L84.9933 29.5072L85.7205 27.3868C85.8148 27.0716 85.936 27 86.165 27H86.5286C86.8249 27 87 27.1862 87 27.5444V31.4986C87 31.8281 86.8923 32 86.596 32H86.4613C86.1919 32 86.0707 31.8281 86.0707 31.4986V30.4097L86.138 28.3324L85.4242 30.5387C85.3704 30.7393 85.3434 30.8825 84.9933 30.8825C84.6431 30.8825 84.6296 30.7393 84.5758 30.5387L83.8485 28.3324L83.9158 30.4097V31.4986C83.9158 31.8281 83.8215 32 83.5252 32H83.3906C83.1212 32 83 31.8281 83 31.4986V27.5444Z" fill="#1A1A1A"/>
<path d="M89 31.3913V27.6232C89 27.2319 89.1883 27 89.5112 27H91.5022C91.8117 27 91.9596 27.1449 91.9596 27.4348V27.4928C91.9596 27.7971 91.8117 27.9275 91.5022 27.9275H89.9955V29H91.0045C91.3408 29 91.4753 29.1304 91.4753 29.4058V29.4783C91.4753 29.7681 91.3408 29.913 91.0045 29.913H89.9955V31.058H91.5291C91.852 31.058 92 31.1884 92 31.4783V31.5362C92 31.8406 91.852 32 91.5291 32H89.5112C89.1883 32 89 31.7826 89 31.3913Z" fill="#1A1A1A"/>
<path d="M94 31.3913V27.6232C94 27.2319 94.1883 27 94.5247 27H96.5022C96.8117 27 96.9596 27.1449 96.9596 27.4348V27.4928C96.9596 27.7971 96.8117 27.9275 96.5022 27.9275H94.9955V29H96.0045C96.3543 29 96.4753 29.1304 96.4753 29.4058V29.4783C96.4753 29.7681 96.3408 29.913 96.0045 29.913H94.9955V31.058H96.5291C96.852 31.058 97 31.1884 97 31.4783V31.5362C97 31.8406 96.852 32 96.5291 32H94.5247C94.1883 32 94 31.7826 94 31.3913Z" fill="#1A1A1A"/>
<path d="M99.0445 27.9942H98.413C98.1336 27.9942 98 27.8357 98 27.5187V27.4611C98 27.1585 98.1336 27 98.413 27H100.575C100.858 27 101 27.1537 101 27.4611V27.5187C101 27.8357 100.866 27.9942 100.575 27.9942H99.9555V31.4957C99.9555 31.8271 99.8219 32 99.5547 32H99.4211C99.166 32 99.0445 31.8271 99.0445 31.4957V27.9942Z" fill="#1A1A1A"/>
<path d="M103 27.5014C103 27.1719 103.158 27 103.434 27H103.566C103.842 27 104 27.1719 104 27.5014V31.4986C104 31.8281 103.842 32 103.566 32H103.434C103.158 32 103 31.8281 103 31.4986V27.5014Z" fill="#1A1A1A"/>
<path d="M106 31.4986V27.5444C106 27.1862 106.142 27 106.354 27H106.449C106.65 27 106.744 27.086 106.839 27.3152L108.185 30.0802V27.5014C108.185 27.1719 108.315 27 108.539 27H108.646C108.87 27 109 27.1719 109 27.5014V31.4556C109 31.8138 108.858 32 108.646 32H108.575C108.362 32 108.28 31.914 108.197 31.7278L106.815 28.9341V31.4986C106.815 31.8281 106.673 32 106.437 32H106.366C106.13 32 106 31.8281 106 31.4986Z" fill="#1A1A1A"/>
<path d="M115 29.7809V31.8455C115 31.8736 114.825 31.9438 114.622 31.9438C114.404 31.9438 114.229 31.8596 114.127 31.5084C114.098 31.4101 114.084 31.2837 114.069 31.1292C113.909 31.6489 113.502 32 112.847 32C111.727 32 111 30.9466 111 29.514C111 28.0393 111.8 27 113.182 27C113.676 27 114.113 27.1264 114.404 27.3652C114.651 27.5478 114.782 27.8006 114.782 28.0253C114.782 28.6152 114.098 28.6433 113.996 28.6011C113.851 28.1376 113.575 27.8848 113.167 27.8848C112.556 27.8848 112.164 28.4045 112.164 29.5421C112.164 30.6376 112.527 31.1573 113.153 31.1573C113.604 31.1573 113.924 30.8764 113.996 30.3989C114.011 30.3006 114.025 30.2022 114.025 30.0899H113.502C113.196 30.0899 113.022 30.0197 113.022 29.7107V29.6545C113.022 29.3595 113.182 29.2753 113.531 29.2753H114.622C114.927 29.2753 115 29.4579 115 29.7809Z" fill="#1A1A1A"/>
<path fill-rule="evenodd" clip-rule="evenodd" d="M117 31.3768V27.6232C117 27.2319 117.173 27 117.481 27H118.617C119.395 27 119.864 27.4493 119.864 28.2754C119.864 28.8406 119.642 29.1884 119.235 29.3333C119.753 29.5072 120 29.971 120 30.5797C120 31.5507 119.519 32 118.519 32H117.481C117.173 32 117 31.7681 117 31.3768ZM118.407 29.1449C118.753 29.1449 118.938 28.8986 118.938 28.4493C118.938 28.0145 118.765 27.7826 118.42 27.7826H117.914V29.1449H118.407ZM118.481 31.2174C118.889 31.2174 119.074 31 119.074 30.4638C119.074 29.9855 118.889 29.7681 118.469 29.7681H117.926V31.2174H118.481Z" fill="#1A1A1A"/>
<path fill-rule="evenodd" clip-rule="evenodd" d="M122 29.507C122 27.9014 122.769 27 124 27C125.245 27 126 27.8873 126 29.493C126 31.0986 125.245 32 124 32C122.769 32 122 31.0986 122 29.507ZM124.895 29.507C124.895 28.3239 124.559 27.9014 124 27.9014C123.441 27.9014 123.105 28.3239 123.105 29.493C123.105 30.6761 123.455 31.0986 124 31.0986C124.559 31.0986 124.895 30.6761 124.895 29.507Z" fill="#1A1A1A"/>
<path d="M128.222 29.4858L127.005 27.3835C126.99 27.3267 127.208 27.0142 127.66 27.0142C128.05 27.0142 128.191 27.2273 128.268 27.4972L129.001 28.9886L129.734 27.4972C129.828 27.2131 129.968 27 130.327 27C130.764 27 131.013 27.3125 130.982 27.3835L129.797 29.5L130.998 31.6165C131.029 31.6875 130.764 31.9858 130.343 31.9858C129.999 31.9858 129.859 31.7869 129.75 31.4744L128.986 30.0398L128.237 31.4744C128.128 31.7727 128.003 32 127.629 32C127.224 32 126.959 31.6875 127.005 31.6307L128.222 29.4858Z" fill="#1A1A1A"/>
<path d="M132 31.3913V27.6232C132 27.2319 132.175 27 132.511 27H134.489C134.812 27 134.96 27.1449 134.96 27.4348V27.4928C134.96 27.7971 134.812 27.9275 134.489 27.9275H132.996V29H134.004C134.341 29 134.475 29.1304 134.475 29.4058V29.4783C134.475 29.7681 134.341 29.913 134.004 29.913H132.996V31.058H134.529C134.852 31.058 135 31.1884 135 31.4783V31.5362C135 31.8406 134.852 32 134.529 32H132.511C132.175 32 132 31.7826 132 31.3913Z" fill="#1A1A1A"/>
<path d="M137 31.4986V27.5444C137 27.1862 137.142 27 137.354 27H137.437C137.65 27 137.744 27.086 137.839 27.3152L139.185 30.0802V27.5014C139.185 27.1719 139.315 27 139.539 27H139.634C139.87 27 140 27.1719 140 27.5014V31.4556C140 31.8138 139.858 32 139.646 32H139.575C139.362 32 139.28 31.914 139.197 31.7278L137.815 28.9341V31.4986C137.815 31.8281 137.673 32 137.437 32H137.366C137.13 32 137 31.8281 137 31.4986Z" fill="#1A1A1A"/>
</svg>
