<svg width="12" height="12" viewBox="0 0 12 12" fill="none" xmlns="http://www.w3.org/2000/svg">
<path fill-rule="evenodd" clip-rule="evenodd" d="M0.963767 1.8931L4.5702 5.49832C5.35678 6.28278 6.64255 6.28346 7.42977 5.49832L11.0362 1.8931C11.0725 1.85681 11.0672 1.79704 11.0251 1.76768C10.6573 1.51134 10.2097 1.35938 9.72762 1.35938H2.27238C1.79026 1.35938 1.34271 1.51137 0.974874 1.76768C0.93274 1.79704 0.927447 1.85681 0.963767 1.8931ZM0 3.62998C0 3.25117 0.0939936 2.89325 0.259558 2.57866C0.285449 2.52944 0.351075 2.51949 0.390419 2.55881L3.9512 6.11685C5.07878 7.24521 6.92054 7.24586 8.0488 6.11685L11.6096 2.55881C11.6489 2.51949 11.7146 2.52944 11.7404 2.57866C11.906 2.89325 12 3.25119 12 3.62998V8.37C12 9.62297 10.98 10.6406 9.72762 10.6406H2.27238C1.02003 10.6406 0 9.62297 0 8.37V3.62998Z" fill="#BABABA"/>
</svg>
