<svg width="260" height="104" viewBox="0 0 260 104" fill="none" xmlns="http://www.w3.org/2000/svg">
<g clip-path="url(#clip0_2187_7507)">
<path d="M125.1 80.9996C125.1 80.9996 125 80.7996 125 80.6996C124.6 79.5663 124.233 78.4663 123.9 77.3996C121.4 78.0996 118.7 78.4996 115.9 78.4996C98.9996 78.4996 85.3996 64.7996 85.3996 47.9996C85.3996 31.0996 98.9996 17.4996 115.9 17.3996C125.8 17.3996 134.6 22.1996 140.2 29.4996C144.9 25.8996 150.4 23.1996 156.4 21.6996C147.8 8.39961 132.9 -0.400391 115.9 -0.400391C89.1996 -0.400391 67.5996 21.2996 67.5996 47.9996C67.5996 74.6996 89.1996 96.2996 115.9 96.2996C121.6 96.2996 127 95.2996 132.1 93.4996C130.1 91.0329 128.4 88.3663 127 85.4996C126.266 84.0329 125.633 82.5329 125.1 80.9996Z" fill="#8DC63F"/>
<path fill-rule="evenodd" clip-rule="evenodd" d="M56.3 64.5004C56.2 80.5004 44.1 90.9004 28.5 91.0004C27.3 91.0004 24.5 90.6004 23.4 90.4004C21.5 90.1004 16.7 89.1004 13.3 87.3004L12.3 86.8004V104H0C0 98.8004 0 64.7004 0 64.5004C0 48.3004 12.4 38.0004 28.1 37.9004C43.9 38.0004 56.2 48.3004 56.3 64.5004ZM20.9 77.3004C22.9 78.3004 25.2 78.9004 27.8 78.9004C36.4 78.9004 41.7 72.9004 41.7 64.6004C41.8 56.5004 36.6 50.6004 28.3 50.4004C19.7 50.4004 14.3 56.4004 14.3 64.8004C14.3 70.4004 16.7 74.9004 20.9 77.3004Z" fill="#4C4C4E"/>
<path d="M241.3 38.0996V38.1996C233.6 38.0996 228.5 42.3996 226.5 46.1996L226.1 46.7996H224.1V39.4996H210.3V91.2996H224.7V65.4996C224.7 61.8996 225 58.2996 226.6 55.3996C228.2 52.4996 231.2 50.4996 235.9 50.5996H236.1C240.7 50.5996 243.4 52.9996 244.5 56.0996C245.8 59.1996 245.7 62.7996 245.8 65.9996V91.2996H260.2V62.5996C260 48.0996 257.5 38.2996 241.3 38.0996Z" fill="#4C4C4E"/>
<path fill-rule="evenodd" clip-rule="evenodd" d="M195.8 64.6996C195.7 80.8996 183.3 91.1996 167.5 91.2996C151.7 91.1996 139.3 80.8996 139.3 64.6996C139.3 48.3996 151.7 38.0996 167.5 38.0996C183.3 38.0996 195.7 48.3996 195.7 64.6996H195.8ZM167.6 79.1996C176.3 79.1996 181.8 73.0996 181.8 64.6996C181.8 56.1996 176.3 50.1996 167.6 50.1996C158.9 50.1996 153.4 56.1996 153.4 64.6996C153.4 73.0996 158.9 79.1996 167.6 79.1996Z" fill="#4C4C4E"/>
</g>
<defs>
<clipPath id="clip0_2187_7507">
<rect width="260" height="104" fill="white"/>
</clipPath>
</defs>
</svg>
