<svg width="40" height="40" viewBox="0 0 40 40" fill="none" xmlns="http://www.w3.org/2000/svg">
<circle cx="20" cy="20" r="20" fill="#1A1A1A"/>
<g clip-path="url(#clip0_2187_5348)">
<path d="M17.6484 15.6682C17.881 15.4354 18.0093 15.1261 18.0093 14.7968C18.0093 14.4674 17.881 14.1585 17.6484 13.9256L15.083 11.3602C14.8428 11.1199 14.5271 11 14.2119 11C13.8966 11 13.5806 11.1199 13.3404 11.3602L12.2827 12.4179C11.1492 13.5517 10.726 15.2166 11.178 16.7628C11.9748 19.4874 13.5502 22.0817 15.734 24.2658C17.9178 26.45 20.5124 28.0251 23.237 28.8218C24.7833 29.2745 26.4481 28.8506 27.5819 27.7172L28.6397 26.6594C29.1201 26.179 29.1201 25.3973 28.6397 24.9168L26.0742 22.3514C25.6085 21.886 24.7973 21.8863 24.3316 22.3514L23.1791 23.504C22.3414 24.3416 20.9778 24.3419 20.1395 23.504L16.4959 19.8603C16.0895 19.4539 15.866 18.9138 15.8663 18.3392C15.8663 17.7656 16.0901 17.2262 16.4959 16.8208L17.6484 15.6682Z" fill="white"/>
</g>
<defs>
<clipPath id="clip0_2187_5348">
<rect width="18" height="18" fill="white" transform="translate(11 11)"/>
</clipPath>
</defs>
</svg>
