<svg width="12" height="12" viewBox="0 0 12 12" fill="none" xmlns="http://www.w3.org/2000/svg">
<path d="M9.12871 1.11834C8.56284 0.65501 7.9012 0.323039 7.19151 0.146369C6.48181 -0.0303 5.74175 -0.0472632 5.02471 0.0967032C4.10274 0.285725 3.25454 0.735786 2.58114 1.39328C1.90774 2.05076 1.43754 2.88797 1.22653 3.80515C1.01553 4.72234 1.07262 5.68085 1.39101 6.56651C1.70939 7.45216 2.27566 8.22763 3.02234 8.80053C3.87485 9.42449 4.6007 10.2051 5.16107 11.1007L5.54289 11.7356C5.59138 11.8163 5.65991 11.883 5.74183 11.9293C5.82374 11.9757 5.91624 12 6.01034 12C6.10445 12 6.19695 11.9757 6.27886 11.9293C6.36077 11.883 6.4293 11.8163 6.4778 11.7356L6.8438 11.1258C7.33177 10.268 7.99713 9.52418 8.79544 8.94399C9.4214 8.51331 9.93872 7.94306 10.3066 7.27824C10.6744 6.61341 10.8828 5.87219 10.9151 5.11307C10.9475 4.35395 10.803 3.59769 10.4931 2.90396C10.1832 2.21023 9.71629 1.59801 9.12926 1.11561L9.12871 1.11834ZM6.0098 7.09162C5.57827 7.09162 5.15644 6.96366 4.79764 6.72392C4.43884 6.48418 4.15919 6.14342 3.99406 5.74475C3.82892 5.34607 3.78571 4.90738 3.8699 4.48415C3.95409 4.06092 4.16188 3.67215 4.46702 3.36702C4.77215 3.06189 5.16091 2.85409 5.58415 2.7699C6.00738 2.68572 6.44607 2.72892 6.84474 2.89406C7.24342 3.0592 7.58417 3.33885 7.82392 3.69765C8.06366 4.05644 8.19162 4.47828 8.19162 4.9098C8.19162 5.48846 7.96175 6.04341 7.55258 6.45258C7.14341 6.86175 6.58845 7.09162 6.0098 7.09162Z" fill="#BABABA"/>
</svg>
