<svg width="12" height="12" viewBox="0 0 12 12" fill="none" xmlns="http://www.w3.org/2000/svg">
<path d="M0.822101 11.1786C1.15683 11.5134 1.69954 11.5134 2.03428 11.1786L11.7485 1.46436C12.0833 1.12962 12.0833 0.586992 11.7485 0.252251C11.4138 -0.0824909 10.8711 -0.0824909 10.5363 0.252251L0.822101 9.96645C0.48736 10.3012 0.48736 10.8439 0.822101 11.1786Z" fill="#1A1A1A"/>
<path d="M11.1426 12C11.616 12 11.9998 11.6163 11.9998 11.1429V0.85714C11.9998 0.38377 11.616 0 11.1426 0H0.856895C0.383503 0 -0.000244141 0.38377 -0.000244141 0.85714C-0.000244141 1.33062 0.383503 1.71428 0.856895 1.71428H10.2855V11.1429C10.2855 11.6163 10.6691 12 11.1426 12Z" fill="#1A1A1A"/>
</svg>
